<svg width="72" height="72" viewBox="0 0 72 72" fill="none" xmlns="http://www.w3.org/2000/svg">
<rect width="72" height="72" rx="6" fill="#111111"/>
<path d="M50.98 11.001H16.645C16.1809 11.001 15.7358 11.1854 15.4076 11.5135C15.0794 11.8417 14.895 12.2868 14.895 12.751V59.2485C14.895 59.7126 15.0794 60.1577 15.4076 60.4859C15.7358 60.8141 16.1809 60.9985 16.645 60.9985H50.98C52.6039 60.9966 54.1607 60.3507 55.309 59.2025C56.4573 58.0542 57.1032 56.4974 57.105 54.8735V17.126C57.1032 15.5021 56.4573 13.9453 55.309 12.797C54.1607 11.6487 52.6039 11.0028 50.98 11.001ZM53.605 54.8735C53.605 55.5697 53.3285 56.2373 52.8362 56.7296C52.3439 57.2219 51.6762 57.4985 50.98 57.4985H27.0925V14.501H50.98C51.6762 14.501 52.3439 14.7775 52.8362 15.2698C53.3285 15.7621 53.605 16.4298 53.605 17.126V54.8735ZM32.8176 26.1936C32.8176 25.7295 33.002 25.2844 33.3302 24.9562C33.6584 24.628 34.1035 24.4436 34.5676 24.4436H46.1264C46.5905 24.4436 47.0356 24.628 47.3638 24.9562C47.692 25.2844 47.8764 25.7295 47.8764 26.1936C47.8764 26.6577 47.692 27.1028 47.3638 27.431C47.0356 27.7592 46.5905 27.9436 46.1264 27.9436H34.5676C34.1035 27.9436 33.6584 27.7592 33.3302 27.431C33.002 27.1028 32.8176 26.6577 32.8176 26.1936ZM49.5485 33.0431C49.5485 33.5072 49.3641 33.9523 49.036 34.2805C48.7078 34.6087 48.2626 34.7931 47.7985 34.7931H32.8955C32.4314 34.7931 31.9863 34.6087 31.6581 34.2805C31.3299 33.9523 31.1455 33.5072 31.1455 33.0431C31.1455 32.579 31.3299 32.1339 31.6581 31.8057C31.9863 31.4775 32.4314 31.2931 32.8955 31.2931H47.7985C48.2626 31.2931 48.7078 31.4775 49.036 31.8057C49.3641 32.1339 49.5485 32.579 49.5485 33.0431Z" fill="white"/>
</svg>
